<?xml version="1.0" encoding="UTF-8" standalone="no"?>
<!DOCTYPE svg PUBLIC "-//W3C//DTD SVG 1.1//EN" "http://www.w3.org/Graphics/SVG/1.1/DTD/svg11.dtd">
<svg width="100%" height="100%" viewBox="0 0 146 146" version="1.1" xmlns="http://www.w3.org/2000/svg" xmlns:xlink="http://www.w3.org/1999/xlink" xml:space="preserve" xmlns:serif="http://www.serif.com/" style="fill-rule:evenodd;clip-rule:evenodd;stroke-linejoin:round;stroke-miterlimit:2;">
    <g transform="matrix(1,0,0,1,-20,-51)">
        <g transform="matrix(1,0,0,0.271354,0,0)">
            <g transform="matrix(1,0,0,3.685229,-160,-549.099166)">
                <path d="M326,236.5L326,309.5C326,329.645 309.645,346 289.5,346L216.5,346C196.355,346 180,329.645 180,309.5L180,236.5C180,216.355 196.355,200 216.5,200L289.5,200C309.645,200 326,216.355 326,236.5Z" style="fill:url(#_Linear1);"/>
            </g>
            <g transform="matrix(1.5,0,0,5.527844,-266.416231,-1028.178976)">
                <circle cx="210" cy="257" r="3" style="fill:rgb(244,78,44);"/>
            </g>
            <g transform="matrix(1.5,0,0,5.527844,-215.694513,-1028.043894)">
                <circle cx="210" cy="257" r="3" style="fill:white;"/>
            </g>
            <g transform="matrix(1.5,0,0,5.527844,-240.859774,-1028.111435)">
                <circle cx="210" cy="257" r="3" style="fill:white;"/>
            </g>
            <g transform="matrix(1.5,0,0,5.527844,-190.138057,-1027.976353)">
                <circle cx="210" cy="257" r="3" style="fill:white;"/>
            </g>
            <g transform="matrix(1.5,0,0,5.527844,-253.861943,-1028.111435)">
                <circle cx="210" cy="257" r="3" style="fill:rgb(244,78,44);"/>
            </g>
            <g transform="matrix(1.5,0,0,5.527844,-203.140226,-1027.976353)">
                <circle cx="210" cy="257" r="3" style="fill:white;"/>
            </g>
            <g transform="matrix(1.5,0,0,5.527844,-228.305487,-1028.043894)">
                <circle cx="210" cy="257" r="3" style="fill:white;"/>
            </g>
            <g transform="matrix(1.5,0,0,5.527844,-177.583769,-1027.908812)">
                <circle cx="210" cy="257" r="3" style="fill:white;"/>
            </g>
            <g transform="matrix(1.5,0,0,5.527844,-266.416231,-983.116446)">
                <circle cx="210" cy="257" r="3" style="fill:rgb(244,78,44);"/>
            </g>
            <g transform="matrix(1.5,0,0,5.527844,-215.694513,-982.981364)">
                <circle cx="210" cy="257" r="3" style="fill:white;"/>
            </g>
            <g transform="matrix(1.5,0,0,5.527844,-240.859774,-983.048905)">
                <circle cx="210" cy="257" r="3" style="fill:white;"/>
            </g>
            <g transform="matrix(1.5,0,0,5.527844,-190.138057,-982.913823)">
                <circle cx="210" cy="257" r="3" style="fill:white;"/>
            </g>
            <g transform="matrix(1.5,0,0,5.527844,-253.861943,-983.048905)">
                <circle cx="210" cy="257" r="3" style="fill:white;"/>
            </g>
            <g transform="matrix(1.5,0,0,5.527844,-203.140226,-982.913823)">
                <circle cx="210" cy="257" r="3" style="fill:white;"/>
            </g>
            <g transform="matrix(1.5,0,0,5.527844,-228.305487,-982.981364)">
                <circle cx="210" cy="257" r="3" style="fill:white;"/>
            </g>
            <g transform="matrix(1.5,0,0,5.527844,-177.583769,-982.846282)">
                <circle cx="210" cy="257" r="3" style="fill:white;"/>
            </g>
            <g transform="matrix(1.5,0,0,5.527844,-266.416231,-854.098336)">
                <circle cx="210" cy="257" r="3" style="fill:white;fill-opacity:0.64;"/>
            </g>
            <g transform="matrix(1.5,0,0,5.527844,-215.694513,-853.963254)">
                <circle cx="210" cy="257" r="3" style="fill:white;fill-opacity:0.64;"/>
            </g>
            <g transform="matrix(1.5,0,0,5.527844,-240.859774,-854.030795)">
                <circle cx="210" cy="257" r="3" style="fill:white;fill-opacity:0.64;"/>
            </g>
            <g transform="matrix(1.5,0,0,5.527844,-190.138057,-853.895713)">
                <circle cx="210" cy="257" r="3" style="fill:white;fill-opacity:0.64;"/>
            </g>
            <g transform="matrix(1.5,0,0,5.527844,-253.861943,-854.030795)">
                <circle cx="210" cy="257" r="3" style="fill:white;fill-opacity:0.64;"/>
            </g>
            <g transform="matrix(1.5,0,0,5.527844,-203.140226,-853.895713)">
                <circle cx="210" cy="257" r="3" style="fill:white;fill-opacity:0.64;"/>
            </g>
            <g transform="matrix(1.5,0,0,5.527844,-228.305487,-853.963254)">
                <circle cx="210" cy="257" r="3" style="fill:white;fill-opacity:0.64;"/>
            </g>
            <g transform="matrix(1.5,0,0,5.527844,-177.583769,-853.828172)">
                <circle cx="210" cy="257" r="3" style="fill:white;fill-opacity:0.64;"/>
            </g>
            <g transform="matrix(1.5,0,0,5.527844,-266.416231,-939.337482)">
                <circle cx="210" cy="257" r="3" style="fill:white;"/>
            </g>
            <g transform="matrix(1.5,0,0,5.527844,-215.694513,-939.202401)">
                <circle cx="210" cy="257" r="3" style="fill:white;"/>
            </g>
            <g transform="matrix(1.5,0,0,5.527844,-240.859774,-939.269942)">
                <circle cx="210" cy="257" r="3" style="fill:white;"/>
            </g>
            <g transform="matrix(1.5,0,0,5.527844,-190.138057,-939.13486)">
                <circle cx="210" cy="257" r="3" style="fill:white;"/>
            </g>
            <g transform="matrix(1.5,0,0,5.527844,-253.861943,-939.269942)">
                <circle cx="210" cy="257" r="3" style="fill:white;"/>
            </g>
            <g transform="matrix(1.5,0,0,5.527844,-203.140226,-939.13486)">
                <circle cx="210" cy="257" r="3" style="fill:white;"/>
            </g>
            <g transform="matrix(1.5,0,0,5.527844,-228.305487,-939.202401)">
                <circle cx="210" cy="257" r="3" style="fill:white;"/>
            </g>
            <g transform="matrix(1.5,0,0,5.527844,-177.583769,-939.067319)">
                <circle cx="210" cy="257" r="3" style="fill:white;"/>
            </g>
            <g transform="matrix(1.5,0,0,5.527844,-266.416231,-810.319372)">
                <circle cx="210" cy="257" r="3" style="fill:white;fill-opacity:0.36;"/>
            </g>
            <g transform="matrix(1.5,0,0,5.527844,-215.694513,-810.184291)">
                <circle cx="210" cy="257" r="3" style="fill:white;fill-opacity:0.36;"/>
            </g>
            <g transform="matrix(1.5,0,0,5.527844,-240.859774,-810.251831)">
                <circle cx="210" cy="257" r="3" style="fill:white;fill-opacity:0.36;"/>
            </g>
            <g transform="matrix(1.5,0,0,5.527844,-190.138057,-810.11675)">
                <circle cx="210" cy="257" r="3" style="fill:white;fill-opacity:0.36;"/>
            </g>
            <g transform="matrix(1.5,0,0,5.527844,-253.861943,-810.251831)">
                <circle cx="210" cy="257" r="3" style="fill:white;fill-opacity:0.36;"/>
            </g>
            <g transform="matrix(1.5,0,0,5.527844,-203.140226,-810.11675)">
                <circle cx="210" cy="257" r="3" style="fill:white;fill-opacity:0.36;"/>
            </g>
            <g transform="matrix(1.5,0,0,5.527844,-228.305487,-810.184291)">
                <circle cx="210" cy="257" r="3" style="fill:white;fill-opacity:0.36;"/>
            </g>
            <g transform="matrix(1.5,0,0,5.527844,-177.583769,-810.049209)">
                <circle cx="210" cy="257" r="3" style="fill:white;fill-opacity:0.36;"/>
            </g>
            <g transform="matrix(1.5,0,0,5.527844,-266.416231,-896.867456)">
                <circle cx="210" cy="257" r="3" style="fill:white;"/>
            </g>
            <g transform="matrix(1.5,0,0,5.527844,-215.694513,-896.732375)">
                <circle cx="210" cy="257" r="3" style="fill:white;"/>
            </g>
            <g transform="matrix(1.5,0,0,5.527844,-240.859774,-896.799915)">
                <circle cx="210" cy="257" r="3" style="fill:white;"/>
            </g>
            <g transform="matrix(1.5,0,0,5.527844,-190.138057,-896.664834)">
                <circle cx="210" cy="257" r="3" style="fill:white;"/>
            </g>
            <g transform="matrix(1.5,0,0,5.527844,-253.861943,-896.799915)">
                <circle cx="210" cy="257" r="3" style="fill:white;"/>
            </g>
            <g transform="matrix(1.5,0,0,5.527844,-203.140226,-896.664834)">
                <circle cx="210" cy="257" r="3" style="fill:white;"/>
            </g>
            <g transform="matrix(1.5,0,0,5.527844,-228.305487,-896.732375)">
                <circle cx="210" cy="257" r="3" style="fill:white;"/>
            </g>
            <g transform="matrix(1.5,0,0,5.527844,-177.583769,-896.597293)">
                <circle cx="210" cy="257" r="3" style="fill:white;"/>
            </g>
            <g transform="matrix(1.5,0,0,5.527844,-266.416231,-767.849346)">
                <circle cx="210" cy="257" r="3" style="fill:white;fill-opacity:0.22;"/>
            </g>
            <g transform="matrix(1.5,0,0,5.527844,-215.694513,-767.714264)">
                <circle cx="210" cy="257" r="3" style="fill:white;fill-opacity:0.22;"/>
            </g>
            <g transform="matrix(1.5,0,0,5.527844,-240.859774,-767.781805)">
                <circle cx="210" cy="257" r="3" style="fill:white;fill-opacity:0.22;"/>
            </g>
            <g transform="matrix(1.5,0,0,5.527844,-190.138057,-767.646724)">
                <circle cx="210" cy="257" r="3" style="fill:white;fill-opacity:0.22;"/>
            </g>
            <g transform="matrix(1.5,0,0,5.527844,-253.861943,-767.781805)">
                <circle cx="210" cy="257" r="3" style="fill:white;fill-opacity:0.22;"/>
            </g>
            <g transform="matrix(1.5,0,0,5.527844,-203.140226,-767.646724)">
                <circle cx="210" cy="257" r="3" style="fill:white;fill-opacity:0.22;"/>
            </g>
            <g transform="matrix(1.5,0,0,5.527844,-228.305487,-767.714264)">
                <circle cx="210" cy="257" r="3" style="fill:white;fill-opacity:0.22;"/>
            </g>
            <g transform="matrix(1.5,0,0,5.527844,-177.583769,-767.579183)">
                <circle cx="210" cy="257" r="3" style="fill:white;fill-opacity:0.22;"/>
            </g>
            <g transform="matrix(1.5,0,0,5.527844,-266.416231,-722.575107)">
                <circle cx="210" cy="257" r="3" style="fill:white;fill-opacity:0.11;"/>
            </g>
            <g transform="matrix(1.5,0,0,5.527844,-215.694513,-722.440025)">
                <circle cx="210" cy="257" r="3" style="fill:white;fill-opacity:0.11;"/>
            </g>
            <g transform="matrix(1.5,0,0,5.527844,-240.859774,-722.507566)">
                <circle cx="210" cy="257" r="3" style="fill:white;fill-opacity:0.11;"/>
            </g>
            <g transform="matrix(1.5,0,0,5.527844,-190.138057,-722.372484)">
                <circle cx="210" cy="257" r="3" style="fill:white;fill-opacity:0.11;"/>
            </g>
            <g transform="matrix(1.5,0,0,5.527844,-253.861943,-722.507566)">
                <circle cx="210" cy="257" r="3" style="fill:white;fill-opacity:0.11;"/>
            </g>
            <g transform="matrix(1.5,0,0,5.527844,-203.140226,-722.372484)">
                <circle cx="210" cy="257" r="3" style="fill:white;fill-opacity:0.11;"/>
            </g>
            <g transform="matrix(1.5,0,0,5.527844,-228.305487,-722.440025)">
                <circle cx="210" cy="257" r="3" style="fill:white;fill-opacity:0.11;"/>
            </g>
            <g transform="matrix(1.5,0,0,5.527844,-177.583769,-722.304943)">
                <circle cx="210" cy="257" r="3" style="fill:white;fill-opacity:0.11;"/>
            </g>
        </g>
    </g>
    <defs>
        <linearGradient id="_Linear1" x1="0" y1="0" x2="1" y2="0" gradientUnits="userSpaceOnUse" gradientTransform="matrix(51,146,-146,51,229,200)"><stop offset="0" style="stop-color:rgb(58,58,58);stop-opacity:1"/><stop offset="1" style="stop-color:black;stop-opacity:1"/></linearGradient>
    </defs>
</svg>
