<?xml version="1.0" encoding="UTF-8" standalone="no"?><!DOCTYPE svg PUBLIC "-//W3C//DTD SVG 1.1//EN" "http://www.w3.org/Graphics/SVG/1.1/DTD/svg11.dtd"><svg width="100%" height="100%" viewBox="0 0 527 527" version="1.1" xmlns="http://www.w3.org/2000/svg" xmlns:xlink="http://www.w3.org/1999/xlink" xml:space="preserve" xmlns:serif="http://www.serif.com/" style="fill-rule:evenodd;clip-rule:evenodd;stroke-linejoin:round;stroke-miterlimit:2;"><g><path d="M526.479,131.62l0,263.239c0,72.643 -58.977,131.62 -131.62,131.62l-263.239,0c-72.643,0 -131.62,-58.977 -131.62,-131.62l0,-263.239c0,-72.643 58.977,-131.62 131.62,-131.62l263.239,0c72.643,0 131.62,58.977 131.62,131.62Z" style="fill:#fff;"/><g><path d="M160.823,435.444c-11.178,0 -20.166,-3.399 -26.964,-10.196c-6.798,-6.798 -10.196,-15.785 -10.196,-26.964c0,-11.178 3.399,-20.166 10.196,-26.964c6.798,-6.798 15.785,-10.196 26.964,-10.196c11.178,0 20.166,3.399 26.964,10.196c6.798,6.798 10.196,15.785 10.196,26.964c0,11.178 -3.399,20.166 -10.196,26.964c-6.798,6.798 -15.785,10.196 -26.964,10.196Z" style="fill-rule:nonzero;"/><path d="M294.055,206.14l-41.238,27.643l-20.393,-38.066l47.13,-24.471l-47.13,-24.018l20.393,-38.066l41.238,27.19l0,-45.317l47.13,0l0,45.317l41.238,-27.19l20.393,38.066l-47.13,24.018l47.13,24.471l-20.393,38.066l-41.238,-27.643l0,45.77l-47.13,0l0,-45.77Z" style="fill-rule:nonzero;"/></g></g></svg>